<svg width="49" height="28" viewBox="0 0 49 28" fill="none" xmlns="http://www.w3.org/2000/svg">
<path fill-rule="evenodd" clip-rule="evenodd" d="M0 6.95588V17.05C0 20.8882 3.18235 24.0088 7.09118 24.0088H14.6176V20.5765H7.09412C5.1 20.5765 3.47941 18.9059 3.47941 16.8529L3.42647 7.15C3.42647 5.09706 5.04706 3.42941 7.04117 3.42941H14.5647L14.6176 2.0754e-06H7.09412C3.18235 -0.0029391 0 3.12059 0 6.95588ZM30.7676 6.8706H28.3V0.00295108H18.8294V3.42942H24.9147V6.87354H22.3294C19.4529 6.87354 17.1117 9.21471 17.1117 12.0912V18.7971C17.1117 21.6735 19.4529 24.0147 22.3294 24.0147H24.9147V27.45H28.297V24.0147H30.7647C33.6412 24.0147 35.9823 21.6735 35.9823 18.7971V12.0882C35.9853 9.21177 33.6441 6.8706 30.7676 6.8706ZM24.9147 10.3029V20.5765H22.4706C21.4088 20.5765 20.5441 19.6794 20.5441 18.5794V12.3C20.5441 11.1971 21.4088 10.3029 22.4706 10.3029H24.9147ZM32.55 18.5794C32.55 19.6794 31.6853 20.5765 30.6235 20.5765H28.297V10.3029H30.6235C31.6853 10.3029 32.55 11.2 32.55 12.3V18.5794ZM47.9794 0.00884122H47.9941L47.9794 10.3059H44.6088V3.44119H37.6971V0.00884122H47.9794Z" fill="#232431"/>
</svg>
